<?xml version="1.0" encoding="utf-8" standalone="no"?><svg xmlns:android="http://schemas.android.com/apk/res/android" height="700" width="700" xmlns="http://www.w3.org/2000/svg">

    <path d="M552.72 384.16c-14 5.0391-36.961 11.199-62.16 16.801-8.9609 14.559-25.199 26.879-50.961 31.922-6.1602 1.1211-12.879 1.6797-20.16 1.6797-17.922 0.55859-38.641-1.1211-62.16-3.3594-1.6797 0-3.3594 0-5.0391-0.55859-5.6016-0.55859-10.641-5.0391-11.199-10.641-0.55859-7.2812 5.6016-12.879 12.32-12.32 1.6797 0 3.9219 0.55859 5.6016 0.55859 30.238 2.8008 58.238 5.0391 76.16 1.6797 33.039-6.1602 42.559-26.32 40.32-43.121-1.6797-14-11.762-26.879-28.559-25.762-23.52 1.6797-50.961 0-77.281-2.2383-30.238-2.2383-61.602-2.8008-84-0.55859-24.641 2.8008-75.039 21.281-119.28 50.961-21.84 14.559-45.922 32.48-60.48 43.121-7.2812 5.6016-8.9609 15.68-3.3594 22.961l64.398 83.441c5.6016 7.2812 15.68 8.3984 22.961 2.8008l23.52-18.48c5.6016-4.4805 12.879-5.6016 19.602-3.3594 43.121 14 89.602 22.961 119.84 24.641 66.641 4.4727 193.76-73.93 230.16-99.129 36.398-25.199 10.078-75.598-30.242-61.039z" fill="#000000"/>
    <path d="M388.64 296.8c77.84 0 141.12-63.281 141.12-141.12 0-77.84-63.281-141.68-141.12-141.68s-141.68 63.281-141.68 141.12 63.277 141.68 141.68 141.68zm-12.32-211.68v-17.922c0-1.6797 1.6797-3.3594 3.3594-3.3594h17.359c1.6797 0 3.3594 1.6797 3.3594 3.3594v17.359c17.922 1.1211 31.922 14.559 33.602 32.48 0 2.2383-1.6797 3.9219-3.3594 3.9219h-17.359c-1.6797 0-2.8008-1.1211-3.3594-2.8008-1.1211-5.6016-6.1602-9.5195-11.762-9.5195h-15.121c-8.9609 0-17.359 6.7188-18.48 15.68-1.1211 10.078 7.2812 19.039 17.359 19.039h12.883c24.078 0 43.68 20.719 41.441 45.359-1.6797 19.039-17.359 33.602-35.84 36.398v17.922c0 1.6797-1.6797 3.3594-3.3594 3.3594h-17.359c-1.6797 0-3.3594-1.6797-3.3594-3.3594v-17.359c-17.922-1.1211-31.922-14.559-33.602-32.48 0-2.2383 1.6797-3.3594 3.3594-3.3594h17.359c1.6797 0 2.8008 1.1211 3.3594 2.8008 1.1211 5.6016 6.1602 9.5195 11.762 9.5195h15.121c8.9609 0 17.359-6.7188 18.48-15.68 1.1211-10.078-7.2812-19.039-17.359-19.039h-11.199c-21.84 0-40.879-15.68-43.121-37.52-2.2461-22.402 13.996-42 35.836-44.801z" fill="#000000"/>
</svg>