<?xml version="1.0" encoding="utf-8" standalone="no"?><svg xmlns:android="http://schemas.android.com/apk/res/android" height="700" width="700" xmlns="http://www.w3.org/2000/svg">

    <path d="M602.98 412.23c-4.7031-3.6094-11.156-7-19.797-10.172-15.75-5.7969-37.844-10.828-65.625-14.984l-2.625 17.281c68.688 10.281 78.859 22.641 79.953 24.391-1.0938 1.75-10.391 13.016-71.531 23.078-46.922 7.6562-108.5 11.922-173.36 11.922s-126.44-4.2656-173.36-11.922c-61.141-10.062-70.547-21.328-71.531-23.078 1.0938-1.75 11.266-14.109 79.953-24.391l-2.625-17.281c-27.781 4.1562-49.875 9.1875-65.625 14.984-7.2188 2.7344-29.312 10.828-29.312 26.688v61.25c0 10.938 8.4219 26.906 81.594 39.594 48.453 8.3125 112.66 12.906 180.91 12.906s132.56-4.5938 180.91-12.906c73.172-12.688 81.594-28.656 81.594-39.594v-61.25c0-6.125-3.1719-11.703-9.5156-16.516zm-445.48 97.344c-46.156-9.4062-52.062-18.922-52.5-19.797v-39.594c10.391 5.4688 26.797 10.938 52.5 15.969zm87.5 11.484c-24.938-1.9688-48.016-4.7031-68.359-7.9844l-1.6406-0.32812v-43.531c20.891 3.3906 44.516 6.125 70 8.0938zm96.25 3.9375c-27.234-0.10938-53.703-1.0938-78.75-2.625v-43.75c25.047 1.5312 51.516 2.4062 78.75 2.625zm96.25-2.7344c-25.047 1.6406-51.516 2.5156-78.75 2.625v-43.75c27.234-0.10938 53.703-1.0938 78.75-2.625zm87.5-9.4062-1.6406 0.32812c-20.344 3.2812-43.422 6.0156-68.359 7.9844v-43.641c25.484-1.9688 49.109-4.7031 70-8.0938zm70-22.969c-0.4375 0.76562-6.3438 10.281-52.5 19.797v-43.422c25.703-5.0312 42.109-10.5 52.5-15.969z" fill="#000000"/>
    <path d="M210 367.5c-4.8125 0-8.75 3.9375-8.75 8.75v52.5c0 4.8125 3.9375 8.75 8.75 8.75h35c4.8125 0 8.75-3.9375 8.75-8.75v-52.5c0-4.8125-3.9375-8.75-8.75-8.75zm26.25 52.5h-17.5v-35h17.5z" fill="#000000"/>
    <path d="M271.25 367.5h17.5v70h-17.5z" fill="#000000"/>
    <path d="M350 367.5h-35c-4.8125 0-8.75 3.9375-8.75 8.75v52.5c0 4.8125 3.9375 8.75 8.75 8.75h35c4.8125 0 8.75-3.9375 8.75-8.75v-52.5c0-4.8125-3.9375-8.75-8.75-8.75zm-8.75 52.5h-17.5v-35h17.5z" fill="#000000"/>
    <path d="M376.25 367.5h17.5v70h-17.5z" fill="#000000"/>
    <path d="M420 367.5c-4.8125 0-8.75 3.9375-8.75 8.75v52.5c0 4.8125 3.9375 8.75 8.75 8.75h35c4.8125 0 8.75-3.9375 8.75-8.75v-52.5c0-4.8125-3.9375-8.75-8.75-8.75zm26.25 52.5h-17.5v-35h17.5z" fill="#000000"/>
    <path d="M481.25 367.5h17.5v70h-17.5z" fill="#000000"/>
    <path d="M428.75 174.23 24.609-10.609c6.0156-2.625 12.578-3.6094 19.141-3.0625v-90.562h-43.75z" fill="#000000"/>
    <path d="M393.75 113.75c0 4.8125-3.9375 8.75-8.75 8.75h-35c-4.8125 0-8.75-3.9375-8.75-8.75v-43.75h-61.25v101.39l20.016-20.016c1.6406-1.6406 3.8281-2.5156 6.2344-2.5156h52.5c4.8125 0 8.75 3.9375 8.75 8.75 0 14.219-6.8906 27.453-18.484 35.656l18.375 7.3281 43.859-18.812v-111.78h-17.5z" fill="#000000"/>
    <path d="M358.75 70h17.5v35h-17.5z" fill="#000000"/>
    <path d="M166.25 306.25h144.59l32.375 40.469c3.0625 3.8281 8.5312 4.375 12.25 1.4219 0.54688-0.4375 0.98438-0.875 1.4219-1.4219l32.375-40.469h144.48c14.438 0 26.25-11.812 26.25-26.25v-236.25c0-14.438-11.812-26.25-26.25-26.25h-367.5c-14.438 0-26.25 11.812-26.25 26.25v236.25c0 14.438 11.812 26.25 26.25 26.25zm26.25-70h87.5c1.2031 0 2.4062 0.21875 3.5 0.65625l46.375 19.906c7.1094 3.0625 15.203 2.8438 22.094-0.65625l135.73-67.812c-5.7969-9.1875-17.281-12.797-27.344-8.5312l-89.359 38.281c-2.1875 0.875-4.5938 0.98438-6.6719 0.10938l-42.219-16.953h-15.859v-17.5h17.5c11.156 0 21-7 24.719-17.5h-38.609l-23.734 23.734c-1.6406 1.6406-3.8281 2.5156-6.2344 2.5156h-87.5v-17.5h70v-113.75c0-4.8125 3.9375-8.75 8.75-8.75h210c4.8125 0 8.75 3.9375 8.75 8.75v105.33c8.6406 5.4688 14.766 14 17.281 23.844 0.98438 3.9375-0.875 8.0938-4.5938 9.9531l-142.95 71.531c-11.484 5.7969-24.938 6.125-36.75 1.0938l-44.625-19.25h-85.75z" fill="#000000"/>
</svg>