<?xml version="1.0" encoding="utf-8" standalone="no"?><svg xmlns:android="http://schemas.android.com/apk/res/android" height="256" width="256" xmlns="http://www.w3.org/2000/svg">

    <g transform="translate(128, 128) scale(0.72, 0.72)">
        <g transform="translate(-175.05, -175.05000000000004) scale(3.89, 3.89)">
            <path android:strokeLineCap="round" android:strokeMiterLimit="10" d="M 67.37 90 H 26.479 c -4.111 0 -7.457 -3.345 -7.457 -7.456 V 51.65 c 0 -0.553 0.448 -1 1 -1 s 1 0.447 1 1 v 30.894 c 0 3.009 2.448 5.456 5.457 5.456 H 67.37 c 3.009 0 5.456 -2.447 5.456 -5.456 V 63.962 c 0 -0.553 0.447 -1 1 -1 s 1 0.447 1 1 v 18.582 C 74.826 86.655 71.481 90 67.37 90 z" fill="#000000" stroke-width="1"/>
            <path android:strokeLineCap="round" android:strokeMiterLimit="10" d="M 20.022 27.382 c -0.552 0 -1 -0.448 -1 -1 V 7.457 C 19.022 3.345 22.367 0 26.479 0 H 67.37 c 4.111 0 7.456 3.345 7.456 7.457 v 10.159 c 0 0.552 -0.447 1 -1 1 s -1 -0.448 -1 -1 V 7.457 C 72.826 4.448 70.379 2 67.37 2 H 26.479 c -3.009 0 -5.457 2.448 -5.457 5.457 v 18.925 C 21.022 26.934 20.574 27.382 20.022 27.382 z" fill="#000000" stroke-width="1"/>
            <path android:strokeLineCap="round" android:strokeMiterLimit="10" d="M 56.46 8.642 H 37.388 c -3.882 0 -7.04 -3.158 -7.04 -7.041 V 1 c 0 -0.552 0.448 -1 1 -1 H 62.5 c 0.553 0 1 0.448 1 1 v 0.601 C 63.5 5.483 60.342 8.642 56.46 8.642 z M 32.364 2 c 0.204 2.594 2.379 4.642 5.024 4.642 H 56.46 c 2.645 0 4.82 -2.048 5.024 -4.642 H 32.364 z" fill="#000000" stroke-width="1"/>
            <path android:strokeLineCap="round" android:strokeMiterLimit="10" d="M 73.826 78.556 H 20.022 c -0.552 0 -1 -0.447 -1 -1 s 0.448 -1 1 -1 h 53.804 c 0.553 0 1 0.447 1 1 S 74.379 78.556 73.826 78.556 z" fill="#000000" stroke-width="1"/>
            <path android:strokeLineCap="round" android:strokeMiterLimit="10" d="M 52.096 84.307 H 41.753 c -0.552 0 -1 -0.447 -1 -1 s 0.448 -1 1 -1 h 10.343 c 0.553 0 1 0.447 1 1 S 52.648 84.307 52.096 84.307 z" fill="#000000" stroke-width="1"/>
            <path android:strokeLineCap="round" android:strokeMiterLimit="10" d="M 76.917 55.364 H 46.471 c -2.482 0 -4.502 -2.02 -4.502 -4.503 v -4.438 c 0 -0.552 0.448 -1 1 -1 s 1 0.448 1 1 v 4.438 c 0 1.38 1.123 2.503 2.502 2.503 h 30.446 c 1.38 0 2.503 -1.123 2.503 -2.503 V 30.654 c 0 -1.38 -1.123 -2.502 -2.503 -2.502 H 46.471 c -1.38 0 -2.502 1.123 -2.502 2.502 v 5.517 c 0 0.552 -0.448 1 -1 1 s -1 -0.448 -1 -1 v -5.517 c 0 -2.482 2.02 -4.502 4.502 -4.502 h 30.446 c 2.483 0 4.503 2.02 4.503 4.502 v 20.208 C 81.42 53.345 79.4 55.364 76.917 55.364 z" fill="#000000" stroke-width="1"/>
            <path android:strokeLineCap="round" android:strokeMiterLimit="10" d="M 61.694 45.88 c -0.242 0 -0.484 -0.088 -0.676 -0.263 L 47.27 33.003 c -0.407 -0.373 -0.435 -1.006 -0.062 -1.413 c 0.374 -0.408 1.008 -0.435 1.413 -0.061 l 13.073 11.993 L 74.768 31.53 c 0.405 -0.374 1.038 -0.347 1.413 0.061 c 0.373 0.407 0.346 1.04 -0.062 1.413 L 62.37 45.617 C 62.179 45.792 61.937 45.88 61.694 45.88 z" fill="#000000" stroke-width="1"/>
            <path android:strokeLineCap="round" android:strokeMiterLimit="10" d="M 47.945 51.348 c -0.271 0 -0.54 -0.109 -0.737 -0.324 c -0.373 -0.406 -0.346 -1.039 0.062 -1.413 l 9.854 -9.04 c 0.405 -0.374 1.039 -0.348 1.413 0.061 c 0.373 0.407 0.346 1.04 -0.062 1.413 l -9.854 9.041 C 48.43 51.261 48.188 51.348 47.945 51.348 z" fill="#000000" stroke-width="1"/>
            <path android:strokeLineCap="round" android:strokeMiterLimit="10" d="M 75.443 51.348 c -0.242 0 -0.484 -0.087 -0.676 -0.263 l -9.854 -9.041 c -0.407 -0.373 -0.435 -1.006 -0.062 -1.413 c 0.374 -0.409 1.008 -0.435 1.413 -0.061 l 9.854 9.04 c 0.407 0.374 0.435 1.007 0.062 1.413 C 75.983 51.238 75.714 51.348 75.443 51.348 z" fill="#000000" stroke-width="1"/>
            <path android:strokeLineCap="round" android:strokeMiterLimit="10" d="M 45.754 42.307 H 9.58 c -0.552 0 -1 -0.448 -1 -1 s 0.448 -1 1 -1 h 36.174 c 0.552 0 1 0.448 1 1 S 46.307 42.307 45.754 42.307 z" fill="#000000" stroke-width="1"/>
            <path android:strokeLineCap="round" android:strokeMiterLimit="10" d="M 38.65 35.4 H 20.022 c -0.552 0 -1 -0.448 -1 -1 s 0.448 -1 1 -1 H 38.65 c 0.552 0 1 0.448 1 1 S 39.202 35.4 38.65 35.4 z" fill="#000000" stroke-width="1"/>
            <path android:strokeLineCap="round" android:strokeMiterLimit="10" d="M 38.65 49.215 H 28.469 c -0.552 0 -1 -0.447 -1 -1 s 0.448 -1 1 -1 H 38.65 c 0.552 0 1 0.447 1 1 S 39.202 49.215 38.65 49.215 z" fill="#000000" stroke-width="1"/>
        </g>
    </g>
</svg>