<?xml version="1.0" encoding="utf-8" standalone="no"?><svg xmlns:android="http://schemas.android.com/apk/res/android" height="256" width="256" xmlns="http://www.w3.org/2000/svg">

    <g transform="translate(128, 128) scale(0.72, 0.72)">
        <g transform="translate(-175.05, -175.05000000000004) scale(3.89, 3.89)">
            <path android:strokeLineCap="round" android:strokeMiterLimit="10" d="M 53.25 53.584 c -1.104 0 -2 -0.896 -2 -2 V 34.85 l -4.626 6.432 c -0.376 0.522 -0.98 0.832 -1.624 0.832 s -1.248 -0.31 -1.624 -0.832 L 38.75 34.85 v 16.734 c 0 1.104 -0.896 2 -2 2 s -2 -0.896 -2 -2 v -22.94 c 0 -0.868 0.56 -1.637 1.387 -1.904 c 0.826 -0.267 1.73 0.032 2.237 0.736 L 45 36.688 l 6.626 -9.213 c 0.509 -0.705 1.415 -1 2.237 -0.736 c 0.826 0.267 1.387 1.036 1.387 1.904 v 22.94 C 55.25 52.688 54.354 53.584 53.25 53.584 z" fill="#000000" stroke-width="1"/>
            <path android:strokeLineCap="round" android:strokeMiterLimit="10" d="M 24.429 53.584 h -7.486 c -1.104 0 -2 -0.896 -2 -2 s 0.896 -2 2 -2 h 7.486 c 1.094 0 1.984 -0.891 1.984 -1.984 v -3.501 c 0 -1.094 -0.89 -1.984 -1.984 -1.984 h -4.168 c -3.3 0 -5.984 -2.685 -5.984 -5.984 v -3.501 c 0 -3.3 2.685 -5.984 5.984 -5.984 h 5.373 c 1.104 0 2 0.896 2 2 s -0.896 2 -2 2 h -5.373 c -1.094 0 -1.984 0.89 -1.984 1.984 v 3.501 c 0 1.094 0.89 1.984 1.984 1.984 h 4.168 c 3.3 0 5.984 2.685 5.984 5.984 V 47.6 C 30.413 50.899 27.729 53.584 24.429 53.584 z" fill="#000000" stroke-width="1"/>
            <path android:strokeLineCap="round" android:strokeMiterLimit="10" d="M 69.739 53.584 h -7.485 c -1.104 0 -2 -0.896 -2 -2 s 0.896 -2 2 -2 h 7.485 c 1.094 0 1.984 -0.891 1.984 -1.984 v -3.501 c 0 -1.094 -0.891 -1.984 -1.984 -1.984 h -4.168 c -3.3 0 -5.984 -2.685 -5.984 -5.984 v -3.501 c 0 -3.3 2.685 -5.984 5.984 -5.984 h 5.373 c 1.104 0 2 0.896 2 2 s -0.896 2 -2 2 h -5.373 c -1.094 0 -1.984 0.89 -1.984 1.984 v 3.501 c 0 1.094 0.891 1.984 1.984 1.984 h 4.168 c 3.3 0 5.984 2.685 5.984 5.984 V 47.6 C 75.724 50.899 73.039 53.584 69.739 53.584 z" fill="#000000" stroke-width="1"/>
            <path android:strokeLineCap="round" android:strokeMiterLimit="10" d="M 75.734 77.412 c -0.463 0 -0.921 -0.16 -1.288 -0.471 l -10.775 -9.075 H 8.344 C 3.743 67.866 0 64.123 0 59.522 V 20.932 c 0 -4.601 3.743 -8.344 8.344 -8.344 h 73.313 c 4.601 0 8.344 3.743 8.344 8.344 v 38.591 c 0 4.601 -3.743 8.344 -8.344 8.344 h -3.922 v 7.546 c 0 0.778 -0.451 1.485 -1.156 1.813 C 76.309 77.351 76.021 77.412 75.734 77.412 z M 8.344 16.588 C 5.949 16.588 4 18.537 4 20.932 v 38.591 c 0 2.396 1.949 4.344 4.344 4.344 h 56.058 c 0.472 0 0.928 0.167 1.288 0.471 l 8.045 6.775 v -5.246 c 0 -1.104 0.896 -2 2 -2 h 5.922 c 2.396 0 4.344 -1.948 4.344 -4.344 V 20.932 c 0 -2.395 -1.948 -4.344 -4.344 -4.344 H 8.344 z" fill="#000000" stroke-width="1"/>
        </g>
    </g>
</svg>