<?xml version="1.0" encoding="utf-8" standalone="no"?><svg xmlns:android="http://schemas.android.com/apk/res/android" height="700" width="700" xmlns="http://www.w3.org/2000/svg">

    <path d="M202.63 257.58c-32.012 0-60.27 11.52-165.25 59.16-6.4023 2.5664-8.9531 10.465-6.4023 16.902l68.02 151.73c1.3008 3.8711 5.0508 6.7422 7.6016 8.0469 3.8516 1.3086 7.4531-0.30078 10.004-1.6094l34.812-22.938c15.352-10.316 21.504-11.523 42.012-1.2109l27.207 14.09c32.008 16.75 75.223 39.844 88.027 46.281 20.504 10.312 37.109 14.086 51.215 14.086 25.605 0 42.262-10.211 57.617-20.523 15.352-10.316 202.61-132.51 219.26-144.08 20.508-14.188 33.211-30.992 33.211-43.871 1.3008-36.07-33.309-45.074-64.02-25.758l-137.24 92.566c-21.758 12.879-40.812 11.672-53.617 11.672h-76.824c-34.559 0-76.723-12.879-78.02-12.879-3.8516-1.3086-5.3047-5.0781-4.0039-7.6445 1.3008-3.875 3.7539-5.332 7.6016-4.0273h1.6016c3.8516 1.3086 46.113 12.879 76.824 12.879h72.82c10.254 0 18.105-2.5625 23.207-6.4375s8.6523-7.7461 11.203-12.879c0-1.3086 1.6016-1.1055 1.6016-2.4141v-1.207c1.3008-3.875 1.1992-6.5898 1.1992-10.465 0-15.445-12.805-30.891-38.41-32.199-20.508-1.3047-48.566-6.4375-71.621-12.879-12.805-3.8711-22.109-7.8984-27.211-10.461-3.8477-2.5664-7.6992-6.1406-12.801-11.27-15.355-16.754-38.164-42.66-99.629-42.66zm277.68 0c-14.105 0-29.207 5.0781-42.012 14.086-8.9531 5.1289-47.363 29.68-70.422 43.867 16.656 3.875 34.41 6.4375 47.215 6.4375 8.9531 0 18.004 2.668 24.406 5.2344l83.227-56.746s-19.355-12.879-42.414-12.879zm84.426 14.086c12.805 0 33.359 6.5898 37.211 23.34l-140.84 93.773-1.1992 1.6133-1.1992 1.207c5.1016-7.75 7.6016-16.805 7.6016-24.551 0-11.57-4.9531-23.191-15.203-32.199l64.016-43.867c21.758-14.188 36.812-19.316 49.617-19.316zm-225.01-271.66c78.238 0 141.66 63.426 141.66 141.66 0 78.238-63.426 141.66-141.66 141.66-78.238 0-141.66-63.426-141.66-141.66 0-78.238 63.426-141.66 141.66-141.66zm23.605 73.332c0-11.043-8.9531-20-20-20-11.043 0-20 8.957-20 20v86.059l56.695 85.035c6.125 9.1914 18.543 11.676 27.734 5.5469 9.1914-6.125 11.672-18.543 5.5469-27.734l-49.977-74.961z" fill="#000000"/>
</svg>