<svg id="svg" version="1.1" xmlns="http://www.w3.org/2000/svg" xmlns:xlink="http://www.w3.org/1999/xlink" width="400" height="185.24444444444444" viewBox="0, 0, 400,185.24444444444444"><g id="svgg"><path id="path0" d="M253.250 38.241 C 251.039 38.684,248.823 39.643,246.753 41.049 C 245.879 41.643,245.815 41.625,245.368 40.671 C 244.024 37.804,239.332 38.051,237.970 41.061 L 237.583 41.917 237.583 56.417 L 237.583 70.917 237.970 71.750 C 239.518 75.091,244.315 74.994,245.509 71.597 C 245.934 70.389,245.974 69.546,246.083 59.417 C 246.131 55.017,246.243 51.056,246.332 50.614 C 246.677 48.905,247.659 47.326,248.738 46.745 C 249.066 46.568,249.333 46.368,249.333 46.300 C 249.333 46.015,251.302 45.600,252.583 45.614 C 255.578 45.648,257.684 47.331,258.599 50.424 C 258.859 51.303,258.904 52.538,258.996 61.167 C 259.104 71.394,259.116 71.547,259.883 72.686 C 261.152 74.570,264.721 74.653,266.184 72.833 C 267.119 71.669,267.167 71.122,267.167 61.507 C 267.167 52.250,267.217 51.521,267.988 49.492 C 269.739 44.882,276.620 44.197,279.076 48.389 C 280.041 50.035,280.057 50.224,280.157 61.000 L 280.250 70.917 280.636 71.770 C 282.102 75.009,287.095 74.968,288.249 71.708 C 289.101 69.303,288.928 50.464,288.022 46.982 C 286.965 42.916,283.781 39.663,279.869 38.650 C 275.460 37.509,269.073 38.665,266.500 41.069 C 264.996 42.475,264.860 42.490,263.391 41.418 C 259.644 38.685,256.282 37.632,253.250 38.241 M310.234 38.492 C 302.668 40.405,298.441 46.975,298.481 56.759 C 298.516 65.099,301.075 70.329,306.365 72.868 C 316.332 77.652,327.101 72.924,329.284 62.805 C 329.720 60.785,329.714 53.218,329.275 50.594 C 328.238 44.403,324.256 40.001,318.417 38.592 C 317.775 38.437,316.979 38.241,316.647 38.155 C 315.370 37.826,312.212 37.992,310.234 38.492 M170.750 38.349 C 163.453 39.016,159.356 43.341,159.714 50.000 C 160.012 55.572,163.090 58.322,170.250 59.416 C 171.167 59.556,173.137 59.857,174.628 60.084 C 178.252 60.637,179.289 61.128,179.661 62.469 C 181.036 67.420,173.567 69.163,166.338 65.579 C 161.895 63.377,159.985 63.544,158.726 66.247 C 157.501 68.877,158.961 70.841,163.500 72.670 C 164.004 72.874,164.642 73.137,164.917 73.255 C 171.163 75.949,182.530 74.289,185.213 70.292 C 185.352 70.086,185.617 69.757,185.803 69.562 C 187.806 67.463,188.534 62.454,187.315 59.167 C 185.727 54.884,182.798 53.269,174.917 52.330 C 168.844 51.607,167.833 51.071,167.833 48.573 C 167.833 44.947,173.140 44.105,179.503 46.721 C 183.277 48.273,184.671 48.100,185.789 45.942 C 187.714 42.228,183.163 39.007,175.039 38.334 C 172.879 38.155,172.880 38.155,170.750 38.349 M209.750 38.346 C 202.631 38.924,198.280 42.961,196.560 50.583 C 196.202 52.168,196.129 57.904,196.422 61.317 C 196.949 67.434,200.982 72.328,206.793 73.899 C 216.738 76.589,224.853 72.012,226.737 62.651 C 227.471 59.007,227.583 56.406,227.160 52.833 C 226.236 45.028,222.564 40.219,216.417 38.762 C 214.575 38.326,211.989 38.164,209.750 38.346 M350.583 38.331 C 342.731 39.005,338.397 44.320,339.726 51.643 C 340.288 54.738,343.217 58.079,345.667 58.419 C 345.712 58.426,346.012 58.520,346.333 58.628 C 347.328 58.965,349.193 59.308,351.072 59.499 C 355.948 59.995,357.731 60.456,358.732 61.482 C 360.506 63.299,359.521 66.122,356.800 67.014 C 353.225 68.185,349.691 67.529,344.232 64.679 C 340.040 62.491,336.139 66.896,339.271 70.281 C 340.124 71.202,343.079 72.848,344.583 73.240 C 344.675 73.263,344.863 73.328,345.000 73.383 C 350.724 75.667,359.969 74.675,363.966 71.349 C 367.158 68.692,368.633 63.041,367.162 59.108 C 365.655 55.081,362.108 53.023,355.641 52.423 C 350.731 51.968,348.671 51.396,348.005 50.303 C 347.217 49.010,347.775 46.558,348.987 45.994 C 351.683 44.738,354.400 44.950,359.505 46.814 C 363.880 48.412,365.774 47.704,366.106 44.347 C 366.458 40.778,358.411 37.659,350.583 38.331 M99.750 38.436 C 94.042 38.899,88.193 40.787,83.250 43.761 C 81.779 44.646,80.333 45.083,78.886 45.081 L 77.522 45.079 74.308 43.434 C 64.574 38.453,54.155 37.391,45.083 40.455 C 44.625 40.610,44.212 40.746,44.167 40.758 C 44.121 40.769,43.933 40.839,43.750 40.913 C 43.567 40.987,42.827 41.271,42.105 41.544 C 35.512 44.036,28.962 49.402,24.966 55.583 C 22.984 58.651,20.961 63.055,20.412 65.500 C 20.402 65.546,20.298 65.918,20.181 66.327 C 20.064 66.736,19.830 67.786,19.661 68.661 C 19.492 69.535,19.304 70.475,19.243 70.750 C 18.840 72.577,18.969 78.591,19.477 81.632 C 20.655 88.684,24.092 95.764,28.599 100.423 C 28.866 100.699,29.983 101.897,31.083 103.087 C 33.842 106.070,56.115 128.221,69.931 141.720 C 74.210 145.902,74.762 146.279,77.833 147.125 C 78.799 147.391,80.981 147.177,82.318 146.685 C 89.403 144.082,90.624 136.602,84.927 130.696 C 83.990 129.724,55.311 101.079,44.981 90.798 C 40.600 86.438,38.655 83.112,37.838 78.583 C 36.659 72.054,39.538 65.078,45.244 60.638 C 49.089 57.645,55.938 56.361,60.846 57.711 C 64.577 58.738,67.279 60.368,70.988 63.829 C 77.814 70.200,80.859 70.084,88.670 63.158 C 94.264 58.198,98.034 56.733,103.717 57.309 C 120.435 59.004,126.924 78.095,114.715 89.667 C 113.990 90.354,112.599 91.650,111.624 92.547 C 108.463 95.455,107.612 97.151,107.594 100.583 C 107.551 109.112,117.538 112.996,123.667 106.833 C 123.712 106.787,124.500 106.103,125.417 105.313 C 128.555 102.610,131.969 98.926,133.429 96.667 C 133.695 96.254,133.960 95.879,134.016 95.833 C 134.073 95.787,134.454 95.188,134.865 94.500 C 137.449 90.170,138.810 86.525,139.470 82.167 C 139.617 81.193,139.617 72.884,139.470 71.583 C 137.620 55.245,126.869 43.243,110.500 39.243 C 107.985 38.629,102.477 38.215,99.750 38.436 M213.666 45.856 C 216.711 46.544,218.324 49.031,218.681 53.583 C 219.428 63.142,217.465 66.917,211.745 66.917 C 206.535 66.917,204.313 63.523,204.549 55.926 C 204.798 47.939,207.870 44.546,213.666 45.856 M316.322 45.945 C 319.792 46.898,321.248 49.994,321.248 56.417 C 321.247 63.778,319.367 66.746,314.569 66.958 C 309.579 67.179,307.531 64.880,307.024 58.490 C 306.267 48.952,309.820 44.158,316.322 45.945 M203.891 84.572 C 201.372 85.360,200.141 88.241,201.108 91.080 C 202.283 94.527,207.729 94.904,209.696 91.673 C 212.054 87.800,208.291 83.196,203.891 84.572 M224.271 84.745 C 223.241 85.112,222.581 85.880,222.140 87.226 L 221.750 88.417 221.750 107.250 C 221.750 124.899,221.769 126.172,222.056 127.500 C 223.113 132.390,226.101 134.539,231.496 134.290 C 234.885 134.134,236.167 133.084,236.167 130.466 C 236.167 128.517,235.365 127.556,233.417 127.168 C 232.266 126.940,231.115 126.331,230.735 125.750 C 229.954 124.558,229.966 124.872,229.930 105.833 C 229.891 85.640,229.968 86.847,228.624 85.517 C 227.636 84.538,225.776 84.208,224.271 84.745 M176.250 98.289 C 174.196 98.493,171.338 99.657,169.667 100.970 C 169.254 101.294,168.827 101.627,168.718 101.709 C 168.580 101.812,168.411 101.645,168.164 101.161 C 166.578 98.053,162.112 97.946,160.688 100.982 L 160.250 101.917 160.250 122.917 L 160.250 143.917 160.833 145.083 C 162.361 148.139,167.080 147.842,168.097 144.626 C 168.327 143.898,168.388 142.704,168.457 137.556 L 168.540 131.362 169.562 131.986 C 178.819 137.649,187.881 134.138,190.392 123.917 C 191.862 117.937,191.026 107.928,188.772 104.502 C 188.560 104.180,188.249 103.692,188.081 103.417 C 185.969 99.963,181.014 97.816,176.250 98.289 M255.750 98.332 C 245.251 99.871,240.300 110.877,243.909 124.650 C 244.581 127.212,246.862 130.615,248.628 131.687 C 248.970 131.896,249.294 132.129,249.347 132.206 C 250.257 133.520,257.559 135.045,261.168 134.675 C 266.982 134.078,273.170 130.371,273.166 127.489 C 273.162 125.436,271.635 123.833,269.683 123.834 C 268.711 123.834,268.729 123.827,264.500 126.021 C 258.898 128.929,252.036 126.352,251.536 121.152 C 251.342 119.132,250.643 119.264,262.083 119.167 C 274.765 119.059,274.107 119.394,273.687 113.250 C 272.987 103.043,265.588 96.889,255.750 98.332 M299.833 98.327 C 297.870 98.609,295.214 99.925,293.492 101.471 L 292.567 102.301 292.275 101.480 C 291.029 97.972,285.793 97.833,284.505 101.274 C 284.159 102.199,284.157 102.340,284.203 116.729 L 284.250 131.250 284.697 132.101 C 286.274 135.102,291.044 134.876,292.156 131.747 C 292.343 131.222,292.417 129.150,292.511 121.833 C 292.577 116.746,292.673 112.350,292.726 112.065 C 293.710 106.736,296.148 105.334,302.250 106.593 C 305.685 107.301,307.849 105.751,307.826 102.600 C 307.804 99.692,304.106 97.714,299.833 98.327 M326.917 98.264 C 319.611 99.303,315.360 103.115,313.746 110.076 C 313.435 111.415,313.121 116.187,313.330 116.396 C 313.410 116.477,313.434 117.189,313.384 117.979 C 312.912 125.378,316.286 131.064,322.733 133.735 C 328.217 136.006,336.284 134.398,340.137 130.266 C 345.921 124.064,345.964 109.095,340.216 102.715 C 337.437 99.631,331.435 97.622,326.917 98.264 M366.160 98.224 C 366.110 98.276,365.735 98.351,365.326 98.389 C 358.110 99.065,353.984 103.307,354.209 109.821 C 354.427 116.153,357.677 118.777,366.500 119.743 C 372.052 120.351,373.776 121.031,374.173 122.771 C 375.349 127.924,366.552 129.318,359.507 125.095 C 356.202 123.114,352.833 124.538,352.833 127.915 C 352.833 131.264,359.098 134.354,366.417 134.615 C 375.173 134.927,380.548 131.807,382.120 125.500 C 382.292 124.807,382.472 122.847,382.410 122.333 C 382.371 122.013,382.302 121.423,382.255 121.024 C 381.968 118.542,380.251 115.988,377.938 114.601 C 376.075 113.484,374.603 113.108,369.333 112.405 C 365.246 111.859,365.530 111.903,364.783 111.697 C 362.283 111.007,361.413 108.707,362.909 106.745 C 364.337 104.872,369.691 104.960,374.250 106.931 C 377.601 108.380,379.406 108.055,380.408 105.823 C 381.362 103.697,380.480 101.773,378.083 100.750 C 375.065 99.462,373.409 98.935,370.750 98.415 C 370.003 98.269,366.264 98.113,366.160 98.224 M203.960 99.062 C 202.973 99.428,202.549 99.774,202.049 100.624 L 201.583 101.417 201.538 115.915 C 201.490 131.356,201.500 131.577,202.302 132.742 C 203.871 135.022,208.044 134.576,209.236 132.000 C 209.649 131.108,209.879 104.444,209.493 102.137 C 209.047 99.467,206.575 98.094,203.960 99.062 M261.561 106.044 C 264.307 107.322,266.384 111.038,265.182 112.523 L 264.863 112.917 258.731 112.964 C 254.475 112.997,252.460 112.955,252.147 112.825 C 250.256 112.042,251.913 107.657,254.625 106.269 C 256.425 105.347,259.826 105.237,261.561 106.044 M178.372 106.208 C 181.209 107.507,182.408 110.060,182.607 115.224 C 182.925 123.499,180.734 127.250,175.583 127.250 C 170.737 127.250,168.441 123.793,168.442 116.500 C 168.443 110.328,170.210 106.771,173.750 105.815 C 174.805 105.530,177.367 105.748,178.372 106.208 M331.024 105.996 C 334.423 107.055,335.632 109.469,335.783 115.500 C 335.989 123.766,333.921 127.333,328.921 127.333 C 324.066 127.333,321.500 123.588,321.500 116.500 C 321.500 108.483,325.355 104.232,331.024 105.996 M103.841 119.011 C 101.513 119.481,100.556 121.040,100.379 124.647 C 100.218 127.926,101.039 129.962,102.905 130.913 L 103.893 131.417 112.155 131.417 L 120.417 131.417 121.400 130.917 C 123.317 129.943,123.915 128.296,123.806 124.295 C 123.720 121.135,123.085 119.898,121.167 119.153 C 120.473 118.883,105.096 118.757,103.841 119.011 M104.167 134.659 C 101.367 135.238,100.195 137.282,100.387 141.250 C 100.482 143.215,100.486 143.242,100.827 144.250 C 101.778 147.061,102.355 147.209,112.333 147.204 C 122.782 147.197,123.331 146.975,123.857 142.526 C 124.384 138.070,123.350 135.562,120.659 134.763 C 119.712 134.482,105.457 134.392,104.167 134.659 " stroke="none" fill="#f46c6c" fill-rule="evenodd"></path><path id="path1" d="M356.044 124.120 C 356.297 124.158,356.672 124.157,356.877 124.117 C 357.082 124.078,356.875 124.046,356.417 124.048 C 355.958 124.049,355.791 124.081,356.044 124.120 " stroke="none" fill="#f86c6c" fill-rule="evenodd"></path><path id="path2" d="M356.044 124.120 C 356.297 124.158,356.672 124.157,356.877 124.117 C 357.082 124.078,356.875 124.046,356.417 124.048 C 355.958 124.049,355.791 124.081,356.044 124.120 " stroke="none" fill="#f86c6c" fill-rule="evenodd"></path><path id="path3" d="M356.044 124.120 C 356.297 124.158,356.672 124.157,356.877 124.117 C 357.082 124.078,356.875 124.046,356.417 124.048 C 355.958 124.049,355.791 124.081,356.044 124.120 " stroke="none" fill="#f86c6c" fill-rule="evenodd"></path><path id="path4" d="M356.044 124.120 C 356.297 124.158,356.672 124.157,356.877 124.117 C 357.082 124.078,356.875 124.046,356.417 124.048 C 355.958 124.049,355.791 124.081,356.044 124.120 " stroke="none" fill="#f86c6c" fill-rule="evenodd"></path></g></svg>